PathFileType	4	(x/y/z)	S05_BK_Cal_T01
DataRate	CameraRate	NumFrames	NumMarkers	Units	OrigDataRate	OrigDataStartFrame	OrigNumFrames
240	240	5	50	mm	240	1801	2400
Frame#	Time	Sternum			R.Acromium			L.Acromium			Top.Head			R.ASIS			L.ASIS			R.PSIS			L.PSIS			R.Great.Tro			L.Great.Tro			R.Iliac.Crest			L.Iliac.Crest			V.Sacral			R.Thigh.Upper.Post			R.Thigh.Lower.Ant			R.Thigh.Lower.Post			R.Thigh.Upper.Ant			R.Knee.Lat			R.Knee.Med			R.Shank.Upper.Post			R.Shank.Lower.Ant			R.Shank.Lower.Post			R.Shank.Upper.Ant			R.Ankle.Lat			R.Ankle.Med			R.Heel.Upper			R.Heel.Med			R.Heel.Lat			R.Toe.Lat			R.Toe.Med			R.Toe.Tip			L.Thigh.Upper.Post			L.Thigh.Lower.Ant			L.Thigh.Lower.Post			L.Thigh.Upper.Ant			L.Knee.Lat			L.Shank.Upper.Post			L.Shank.Lower.Ant			L.Shank.Lower.Post			L.Shank.Upper.Ant			L.Ankle.Lat			L.Ankle.Med			L.Heel.Upper			L.Heel.Med			L.Heel.Lat			L.Toe.Lat			L.Toe.Med			L.Toe.Tip			Cervical.Spine			Back			
		X1	Y1	Z1	X2	Y2	Z2	X3	Y3	Z3	X4	Y4	Z4	X5	Y5	Z5	X6	Y6	Z6	X7	Y7	Z7	X8	Y8	Z8	X9	Y9	Z9	X10	Y10	Z10	X11	Y11	Z11	X12	Y12	Z12	X13	Y13	Z13	X14	Y14	Z14	X15	Y15	Z15	X16	Y16	Z16	X17	Y17	Z17	X18	Y18	Z18	X19	Y19	Z19	X20	Y20	Z20	X21	Y21	Z21	X22	Y22	Z22	X23	Y23	Z23	X24	Y24	Z24	X25	Y25	Z25	X26	Y26	Z26	X27	Y27	Z27	X28	Y28	Z28	X29	Y29	Z29	X30	Y30	Z30	X31	Y31	Z31	X32	Y32	Z32	X33	Y33	Z33	X34	Y34	Z34	X35	Y35	Z35	X36	Y36	Z36	X37	Y37	Z37	X38	Y38	Z38	X39	Y39	Z39	X40	Y40	Z40	X41	Y41	Z41	X42	Y42	Z42	X43	Y43	Z43	X44	Y44	Z44	X45	Y45	Z45	X46	Y46	Z46	X47	Y47	Z47	X48	Y48	Z48	X49	Y49	Z49	X50	Y50	Z50	

1801	7.5	511.25	1241.4	323.82	424.16	1496.9	481.07	408.61	1504.5	140.85	427	1818.5	316.62	434.12	989.59	453.43	446.1	990.8	203.69	237.28	1014.2	358.55	242.61	1014.9	266	352.92	912.5	514.78	363.53	913.72	124.1	354.11	1077.9	487.13	365.71	1072.4	154.6	227.4	976.25	324.42	446.81	704.65	531.54	514.35	642.78	485.84	454.46	615.07	516.78	502.29	731.02	500.03	465.18	519.8	505.94	470.29	494.94	378.05	347.98	299.31	516.65	395.85	222.46	514.52	332.05	224.2	505.24	413.23	298.4	524.21	355.33	123.65	506.72	361.3	143.43	412.79	273.37	75.303	455.89	281.46	41.538	428.95	283.59	48.92	493.96	451.99	36.86	534.58	478.91	40.834	412.68	545.97	57.341	453.64	416.78	680.2	112.94	510.55	624.49	132.5	447.01	590.02	124.14	488.24	712.43	121.5	470.67	504.37	124.84	369.33	327.83	117.24	422.5	256.46	119.41	352.05	257.29	131.72	434.95	326.24	109.44	345.66	118.04	134.78	381.88	125.59	222.56	278.77	68.562	186.37	291.13	43.673	218.28	281.37	41.088	157.39	462.32	39.158	98.089	488.46	50.928	216.67	551.27	59.812	159.73	363.56	1551	319.06	251.04	1278.1	320.87
1802	7.5042	511.24	1241.4	323.8	424.17	1496.9	481.05	408.6	1504.5	140.84	427	1818.4	316.6	434.1	989.58	453.42	446.09	990.78	203.68	237.26	1014.2	358.54	242.6	1014.8	265.98	352.89	912.48	514.77	363.52	913.7	124.09	354.08	1077.9	487.12	365.71	1072.3	154.59	227.38	976.23	324.4	446.8	704.64	531.54	514.34	642.78	485.84	454.45	615.06	516.78	502.28	731.01	500.03	465.19	519.79	505.94	470.31	494.93	378.06	347.98	299.31	516.65	395.86	222.46	514.52	332.06	224.2	505.24	413.24	298.4	524.21	355.33	123.65	506.72	361.3	143.43	412.79	273.37	75.303	455.89	281.46	41.537	428.95	283.59	48.921	493.96	451.99	36.86	534.58	478.91	40.833	412.68	545.97	57.34	453.64	416.78	680.18	112.93	510.55	624.49	132.49	447.03	590.01	124.13	488.24	712.42	121.5	470.69	504.36	124.83	369.34	327.82	117.24	422.51	256.46	119.41	352.06	257.29	131.71	434.96	326.23	109.43	345.66	118.04	134.78	381.88	125.59	222.56	278.77	68.561	186.37	291.13	43.672	218.28	281.37	41.085	157.39	462.32	39.157	98.089	488.46	50.928	216.67	551.27	59.812	159.74	363.57	1551	319.04	251.03	1278.1	320.85
1803	7.5083	511.23	1241.4	323.79	424.18	1496.9	481.03	408.59	1504.5	140.84	427	1818.4	316.57	434.07	989.56	453.42	446.08	990.76	203.67	237.24	1014.2	358.52	242.58	1014.8	265.95	352.87	912.46	514.76	363.52	913.69	124.07	354.05	1077.9	487.11	365.7	1072.3	154.57	227.37	976.21	324.38	446.78	704.64	531.54	514.33	642.77	485.84	454.45	615.05	516.78	502.26	731.01	500.04	465.19	519.79	505.94	470.32	494.93	378.06	347.99	299.31	516.66	395.86	222.45	514.52	332.07	224.2	505.24	413.25	298.4	524.21	355.34	123.65	506.72	361.31	143.43	412.79	273.37	75.303	455.89	281.46	41.536	428.95	283.59	48.922	493.96	451.99	36.859	534.58	478.92	40.833	412.68	545.97	57.339	453.64	416.79	680.17	112.93	510.56	624.48	132.49	447.04	590	124.13	488.25	712.41	121.49	470.7	504.35	124.83	369.35	327.82	117.23	422.52	256.45	119.4	352.07	257.28	131.71	434.97	326.23	109.43	345.66	118.04	134.78	381.88	125.59	222.56	278.77	68.56	186.37	291.13	43.671	218.27	281.37	41.082	157.39	462.32	39.157	98.09	488.46	50.927	216.67	551.27	59.812	159.74	363.59	1550.9	319.02	251.02	1278.1	320.83
1804	7.5125	511.22	1241.3	323.77	424.19	1496.9	481	408.58	1504.5	140.82	427.01	1818.4	316.54	434.05	989.55	453.41	446.07	990.75	203.67	237.22	1014.2	358.5	242.56	1014.8	265.93	352.85	912.45	514.75	363.52	913.68	124.06	354.02	1077.8	487.1	365.7	1072.3	154.56	227.35	976.2	324.35	446.77	704.63	531.54	514.32	642.76	485.84	454.44	615.04	516.78	502.25	731.01	500.05	465.19	519.79	505.94	470.34	494.93	378.06	347.99	299.3	516.66	395.87	222.45	514.52	332.07	224.2	505.25	413.25	298.39	524.21	355.34	123.65	506.72	361.31	143.43	412.79	273.37	75.303	455.89	281.46	41.534	428.95	283.59	48.922	493.95	451.99	36.859	534.59	478.92	40.832	412.68	545.96	57.338	453.64	416.8	680.16	112.92	510.57	624.48	132.48	447.05	589.98	124.13	488.26	712.4	121.49	470.71	504.34	124.83	369.36	327.81	117.23	422.53	256.45	119.4	352.07	257.28	131.7	434.98	326.23	109.43	345.66	118.04	134.78	381.88	125.58	222.56	278.77	68.559	186.37	291.13	43.669	218.27	281.37	41.079	157.39	462.32	39.156	98.091	488.46	50.927	216.67	551.27	59.812	159.74	363.6	1550.9	318.99	251.01	1278.1	320.8
1805	7.5167	511.21	1241.3	323.76	424.2	1496.8	480.98	408.57	1504.5	140.81	427.01	1818.4	316.51	434.02	989.53	453.41	446.06	990.74	203.66	237.2	1014.2	358.48	242.55	1014.8	265.92	352.83	912.43	514.74	363.51	913.66	124.04	353.99	1077.8	487.09	365.7	1072.3	154.54	227.33	976.18	324.33	446.75	704.62	531.54	514.31	642.75	485.84	454.43	615.04	516.78	502.23	731.01	500.06	465.2	519.79	505.94	470.36	494.92	378.06	348	299.3	516.66	395.87	222.45	514.52	332.08	224.19	505.25	413.26	298.39	524.21	355.34	123.65	506.72	361.31	143.43	412.79	273.37	75.302	455.89	281.46	41.533	428.94	283.59	48.922	493.95	451.99	36.858	534.59	478.92	40.831	412.68	545.96	57.338	453.64	416.81	680.15	112.92	510.58	624.47	132.48	447.06	589.97	124.12	488.26	712.39	121.49	470.73	504.33	124.82	369.37	327.81	117.22	422.53	256.44	119.4	352.08	257.27	131.7	434.99	326.22	109.43	345.66	118.04	134.78	381.88	125.58	222.57	278.77	68.558	186.37	291.13	43.668	218.27	281.36	41.076	157.4	462.32	39.156	98.091	488.46	50.926	216.67	551.26	59.813	159.74	363.61	1550.9	318.97	251	1278.1	320.78
